<mxfile host="app.diagrams.net" modified="2021-04-04T16:42:19.273Z" agent="5.0 (X11)" etag="BWS8guo2jeY0Gs_Z366K" version="14.5.6" type="github">
  <diagram name="Page-1" id="d9b1e647-80fa-b4a2-5024-87a742678bcc">
    <mxGraphModel dx="868" dy="492" grid="0" gridSize="10" guides="1" tooltips="1" connect="1" arrows="1" fold="1" page="1" pageScale="1" pageWidth="1100" pageHeight="850" background="#ffffff" math="0" shadow="0">
      <root>
        <mxCell id="0" />
        <mxCell id="1" parent="0" />
        <mxCell id="57fe6abec08f04cb-1" value="Home&lt;br&gt;Page" style="shape=step;whiteSpace=wrap;html=1;fontSize=28;fillColor=#0080FF;fontColor=#FFFFFF;strokeColor=none;" parent="1" vertex="1">
          <mxGeometry x="57" y="173" width="270" height="80" as="geometry" />
        </mxCell>
        <mxCell id="57fe6abec08f04cb-2" value="&amp;nbsp; Login/Registro" style="shape=step;whiteSpace=wrap;html=1;fontSize=28;fontColor=#FFFFFF;strokeColor=none;fillColor=#0066C9;" parent="1" vertex="1">
          <mxGeometry x="312" y="173" width="300" height="80" as="geometry" />
        </mxCell>
        <mxCell id="57fe6abec08f04cb-4" value="Serviços" style="shape=step;whiteSpace=wrap;html=1;fontSize=28;fontColor=#FFFFFF;strokeColor=none;fillColor=#003D7A;" parent="1" vertex="1">
          <mxGeometry x="607" y="173" width="270" height="80" as="geometry" />
        </mxCell>
        <mxCell id="57fe6abec08f04cb-8" value="&lt;font style=&quot;font-size: 15px&quot;&gt;A home do site centraliza &lt;br&gt;&lt;/font&gt;&lt;div style=&quot;font-size: 15px&quot;&gt;&lt;font style=&quot;font-size: 15px&quot;&gt;o conteúdo do site e o usuário pode escolher entre as subcategorias&lt;/font&gt;&lt;/div&gt;&lt;div style=&quot;font-size: 15px&quot;&gt;&lt;font style=&quot;font-size: 15px&quot;&gt;existenes (Dicas, Denúncias, Relatos... ).&lt;/font&gt;&lt;br&gt;&lt;/div&gt;" style="text;spacingTop=-5;fillColor=#ffffff;whiteSpace=wrap;html=1;align=left;fontSize=12;fontFamily=Helvetica;fillColor=none;strokeColor=none;" parent="1" vertex="1">
          <mxGeometry x="81" y="267" width="190" height="470" as="geometry" />
        </mxCell>
        <mxCell id="57fe6abec08f04cb-10" value="&lt;font style=&quot;font-size: 15px&quot;&gt;O usuário pode se logar ou se registrar no site, assim ele terá acesso a outras funcionalidades.&lt;br&gt;&lt;/font&gt;" style="text;spacingTop=-5;fillColor=#ffffff;whiteSpace=wrap;html=1;align=left;fontSize=12;fontFamily=Helvetica;fillColor=none;strokeColor=none;" parent="1" vertex="1">
          <mxGeometry x="370" y="267" width="170" height="470" as="geometry" />
        </mxCell>
        <mxCell id="57fe6abec08f04cb-11" value="&lt;div align=&quot;left&quot;&gt;&lt;font style=&quot;font-size: 15px&quot;&gt;O usuário registrado poderá adotar animais cadastrados no site assim como&amp;nbsp; registrar algum animal para adoção.&lt;br&gt;Ele também poderá ter acesso a funcionalidade de Relato, Dicas e Denúncias podendo assim enviar conteúdo relativo as mesmas.&lt;br&gt;&lt;/font&gt;&lt;/div&gt;" style="text;spacingTop=-5;fillColor=#ffffff;whiteSpace=wrap;html=1;align=left;fontSize=12;fontFamily=Helvetica;fillColor=none;strokeColor=none;" parent="1" vertex="1">
          <mxGeometry x="657" y="265" width="170" height="470" as="geometry" />
        </mxCell>
      </root>
    </mxGraphModel>
  </diagram>
</mxfile>
